<mxfile host="app.diagrams.net" agent="Mozilla/5.0 (Windows NT 10.0; Win64; x64) AppleWebKit/537.36 (KHTML, like Gecko) Chrome/140.0.0.0 Safari/537.36 Edg/140.0.0.0" version="28.2.0">
  <diagram name="Page-1" id="iWXjsxSXkEBAJhvO_ub8">
    <mxGraphModel grid="0" page="0" gridSize="10" guides="1" tooltips="1" connect="1" arrows="1" fold="1" pageScale="1" pageWidth="827" pageHeight="1169" math="0" shadow="0">
      <root>
        <mxCell id="0" />
        <mxCell id="1" parent="0" />
        <mxCell id="ZYtv0OEyQL1Yf15tHMNI-2" value="Architecture (BDAT) Domains" style="swimlane;childLayout=stackLayout;resizeParent=1;resizeParentMax=0;horizontal=1;startSize=20;horizontalStack=0;html=1;fontSize=10;" vertex="1" parent="1">
          <mxGeometry x="73" y="-331" width="953" height="1840" as="geometry">
            <mxRectangle x="80" y="170" width="141" height="26" as="alternateBounds" />
          </mxGeometry>
        </mxCell>
        <mxCell id="ZYtv0OEyQL1Yf15tHMNI-3" value="Business" style="swimlane;startSize=76;horizontal=0;html=1;textDirection=vertical-lr;labelPosition=center;verticalLabelPosition=middle;align=center;verticalAlign=top;fontSize=10;" vertex="1" parent="ZYtv0OEyQL1Yf15tHMNI-2">
          <mxGeometry y="20" width="953" height="441" as="geometry">
            <mxRectangle y="20" width="1070" height="76" as="alternateBounds" />
          </mxGeometry>
        </mxCell>
        <mxCell id="ZYtv0OEyQL1Yf15tHMNI-7" value="Business Capabilities - Model" style="swimlane;html=1;fontSize=10;" vertex="1" parent="ZYtv0OEyQL1Yf15tHMNI-3">
          <mxGeometry x="88" y="11" width="220" height="394" as="geometry">
            <mxRectangle x="110" y="20" width="200" height="30" as="alternateBounds" />
          </mxGeometry>
        </mxCell>
        <mxCell id="ZYtv0OEyQL1Yf15tHMNI-13" value="&lt;font&gt;Payment Transactions Processing&lt;/font&gt;" style="swimlane;whiteSpace=wrap;html=1;fontSize=10;strokeColor=default;" vertex="1" parent="ZYtv0OEyQL1Yf15tHMNI-7">
          <mxGeometry x="10" y="30" width="200" height="80" as="geometry">
            <mxRectangle x="10" y="30" width="200" height="30" as="alternateBounds" />
          </mxGeometry>
        </mxCell>
        <mxCell id="ZYtv0OEyQL1Yf15tHMNI-17" value="Transaction Authorization&#xa;Payment Capture&#xa;Settlement Processing&#xa;Reconciliation" style="aspect=fixed;fontSize=10;align=left;verticalAlign=top;textDirection=ltr;labelPosition=center;verticalLabelPosition=middle;fillColor=default;strokeColor=none;" vertex="1" parent="ZYtv0OEyQL1Yf15tHMNI-13">
          <mxGeometry x="20" y="24" width="50" height="50" as="geometry" />
        </mxCell>
        <mxCell id="ZYtv0OEyQL1Yf15tHMNI-19" value="&lt;font&gt;Risk Management&lt;/font&gt;" style="swimlane;whiteSpace=wrap;html=1;fontSize=10;strokeColor=default;align=center;" vertex="1" parent="ZYtv0OEyQL1Yf15tHMNI-7">
          <mxGeometry x="10" y="120" width="200" height="80" as="geometry">
            <mxRectangle x="10" y="120" width="200" height="30" as="alternateBounds" />
          </mxGeometry>
        </mxCell>
        <mxCell id="ZYtv0OEyQL1Yf15tHMNI-20" value="Fraud Detection&#xa;Risk Assessment&#xa;Transaction Monitoring&#xa;Dispute resolution, Chargeback Mngmnt" style="aspect=fixed;fontSize=10;align=left;verticalAlign=top;textDirection=ltr;labelPosition=center;verticalLabelPosition=middle;fillColor=default;strokeColor=none;" vertex="1" parent="ZYtv0OEyQL1Yf15tHMNI-19">
          <mxGeometry x="20" y="24" width="46" height="46" as="geometry" />
        </mxCell>
        <mxCell id="I2EaE8oWcEZbFD4AhC7--1" value="&lt;font&gt;Customer Management&lt;/font&gt;" style="swimlane;whiteSpace=wrap;html=1;fontSize=10;strokeColor=default;" vertex="1" parent="ZYtv0OEyQL1Yf15tHMNI-7">
          <mxGeometry x="10" y="210" width="200" height="80" as="geometry">
            <mxRectangle x="10" y="210" width="200" height="30" as="alternateBounds" />
          </mxGeometry>
        </mxCell>
        <mxCell id="I2EaE8oWcEZbFD4AhC7--2" value="Account Onboarding&#xa;Identity Verification (IDV / KYC)&#xa;Customer Support&#xa;Lifecycle Management" style="aspect=fixed;fontSize=10;align=left;verticalAlign=top;textDirection=ltr;labelPosition=center;verticalLabelPosition=middle;fillColor=default;strokeColor=none;fontColor=default;" vertex="1" parent="I2EaE8oWcEZbFD4AhC7--1">
          <mxGeometry x="20" y="24" width="46" height="46" as="geometry" />
        </mxCell>
        <mxCell id="I2EaE8oWcEZbFD4AhC7--5" value="&lt;font&gt;Compliance Reporting&lt;/font&gt;" style="swimlane;whiteSpace=wrap;html=1;fontSize=10;strokeColor=default;align=center;" vertex="1" parent="ZYtv0OEyQL1Yf15tHMNI-7">
          <mxGeometry x="10" y="300" width="200" height="80" as="geometry">
            <mxRectangle x="10" y="300" width="200" height="30" as="alternateBounds" />
          </mxGeometry>
        </mxCell>
        <mxCell id="I2EaE8oWcEZbFD4AhC7--6" value="PCI DSS Compliance&#xa;Regulatory Reporting&#xa;Audit Management&#xa;Documentation Control" style="aspect=fixed;fontSize=10;align=left;verticalAlign=top;textDirection=ltr;labelPosition=center;verticalLabelPosition=middle;fillColor=default;strokeColor=none;" vertex="1" parent="I2EaE8oWcEZbFD4AhC7--5">
          <mxGeometry x="20" y="24" width="46" height="46" as="geometry" />
        </mxCell>
        <mxCell id="ZYtv0OEyQL1Yf15tHMNI-9" value="Business Processes" style="swimlane;whiteSpace=wrap;html=1;fontSize=10;" vertex="1" parent="ZYtv0OEyQL1Yf15tHMNI-3">
          <mxGeometry x="350" y="10" width="200" height="400" as="geometry" />
        </mxCell>
        <mxCell id="I2EaE8oWcEZbFD4AhC7--28" value="" style="group;fontSize=10;" connectable="0" vertex="1" parent="ZYtv0OEyQL1Yf15tHMNI-9">
          <mxGeometry x="10" y="30" width="179" height="350" as="geometry" />
        </mxCell>
        <mxCell id="I2EaE8oWcEZbFD4AhC7--8" value="Payment Transaction Flow - Process" style="swimlane;startSize=20;horizontal=1;childLayout=flowLayout;flowOrientation=north;resizable=0;interRankCellSpacing=50;containerType=tree;fontSize=10;strokeColor=none;" vertex="1" parent="I2EaE8oWcEZbFD4AhC7--28">
          <mxGeometry width="179" height="190" as="geometry" />
        </mxCell>
        <mxCell id="I2EaE8oWcEZbFD4AhC7--9" value="&lt;font&gt;1. Initiation&lt;/font&gt;&lt;div&gt;&lt;font&gt;&lt;i&gt;Customer Starts Payment&lt;/i&gt;&lt;/font&gt;&lt;/div&gt;" style="whiteSpace=wrap;html=1;fontSize=10;" vertex="1" parent="I2EaE8oWcEZbFD4AhC7--8">
          <mxGeometry x="20" y="40" width="139.38" height="40" as="geometry" />
        </mxCell>
        <mxCell id="I2EaE8oWcEZbFD4AhC7--10" value="&lt;font&gt;2. Validation&lt;/font&gt;&lt;div&gt;&lt;font&gt;&lt;i&gt;Data Validation &amp;amp; Fraud Check&lt;/i&gt;&lt;/font&gt;&lt;/div&gt;" style="whiteSpace=wrap;html=1;fontSize=10;" vertex="1" parent="I2EaE8oWcEZbFD4AhC7--8">
          <mxGeometry x="20.64999999999999" y="130" width="138.08" height="40" as="geometry" />
        </mxCell>
        <mxCell id="I2EaE8oWcEZbFD4AhC7--11" value="" style="html=1;rounded=1;curved=0;sourcePerimeterSpacing=0;targetPerimeterSpacing=0;startSize=6;endSize=6;noEdgeStyle=1;orthogonal=1;fontSize=10;" edge="1" parent="I2EaE8oWcEZbFD4AhC7--8" source="I2EaE8oWcEZbFD4AhC7--9" target="I2EaE8oWcEZbFD4AhC7--10">
          <mxGeometry relative="1" as="geometry">
            <Array as="points">
              <mxPoint x="89.69" y="92" />
              <mxPoint x="89.69000000000001" y="118" />
            </Array>
          </mxGeometry>
        </mxCell>
        <mxCell id="I2EaE8oWcEZbFD4AhC7--19" value="&lt;font&gt;3. Authorization&lt;/font&gt;&lt;div&gt;&lt;font&gt;&lt;i&gt;Payment Network Approval&lt;/i&gt;&lt;/font&gt;&lt;/div&gt;" style="whiteSpace=wrap;html=1;fontSize=10;" vertex="1" parent="I2EaE8oWcEZbFD4AhC7--28">
          <mxGeometry x="19.690000000000055" y="220" width="140" height="40" as="geometry" />
        </mxCell>
        <mxCell id="I2EaE8oWcEZbFD4AhC7--25" style="edgeStyle=orthogonalEdgeStyle;rounded=0;orthogonalLoop=1;jettySize=auto;html=1;fontSize=10;" edge="1" parent="I2EaE8oWcEZbFD4AhC7--28" source="I2EaE8oWcEZbFD4AhC7--10" target="I2EaE8oWcEZbFD4AhC7--19">
          <mxGeometry relative="1" as="geometry" />
        </mxCell>
        <mxCell id="I2EaE8oWcEZbFD4AhC7--18" value="&lt;font&gt;4. Settlement&lt;/font&gt;&lt;div&gt;&lt;i style=&quot;background-color: transparent; color: light-dark(rgb(0, 0, 0), rgb(255, 255, 255));&quot;&gt;&lt;font&gt;Funds Transfer &amp;amp; Reconciliation&lt;/font&gt;&lt;/i&gt;&lt;/div&gt;" style="whiteSpace=wrap;html=1;fontSize=10;" vertex="1" parent="I2EaE8oWcEZbFD4AhC7--28">
          <mxGeometry x="19.690000000000055" y="310" width="140" height="40" as="geometry" />
        </mxCell>
        <mxCell id="I2EaE8oWcEZbFD4AhC7--26" style="edgeStyle=orthogonalEdgeStyle;rounded=0;orthogonalLoop=1;jettySize=auto;html=1;entryX=0.5;entryY=0;entryDx=0;entryDy=0;fontSize=10;" edge="1" parent="I2EaE8oWcEZbFD4AhC7--28" source="I2EaE8oWcEZbFD4AhC7--19" target="I2EaE8oWcEZbFD4AhC7--18">
          <mxGeometry relative="1" as="geometry" />
        </mxCell>
        <mxCell id="ZYtv0OEyQL1Yf15tHMNI-10" value="Stakeholders" style="swimlane;whiteSpace=wrap;html=1;fontSize=10;" vertex="1" parent="ZYtv0OEyQL1Yf15tHMNI-3">
          <mxGeometry x="590" y="10" width="143" height="170" as="geometry" />
        </mxCell>
        <mxCell id="I2EaE8oWcEZbFD4AhC7--31" value="&lt;ul&gt;&lt;li&gt;CEO&lt;/li&gt;&lt;li&gt;&lt;div&gt;CTO&lt;/div&gt;&lt;/li&gt;&lt;li&gt;&lt;div&gt;&lt;span style=&quot;background-color: transparent; color: light-dark(rgb(0, 0, 0), rgb(255, 255, 255));&quot;&gt;CISO&lt;/span&gt;&lt;/div&gt;&lt;/li&gt;&lt;li&gt;&lt;span style=&quot;background-color: transparent; color: light-dark(rgb(0, 0, 0), rgb(255, 255, 255));&quot;&gt;CCO (Compliance)&lt;/span&gt;&lt;/li&gt;&lt;li&gt;&lt;span style=&quot;background-color: transparent; color: light-dark(rgb(0, 0, 0), rgb(255, 255, 255));&quot;&gt;Product Owner&lt;/span&gt;&lt;/li&gt;&lt;/ul&gt;" style="text;strokeColor=none;fillColor=none;html=1;whiteSpace=wrap;verticalAlign=middle;overflow=hidden;fontSize=10;" vertex="1" parent="ZYtv0OEyQL1Yf15tHMNI-10">
          <mxGeometry x="3" y="28" width="147" height="98" as="geometry" />
        </mxCell>
        <mxCell id="ZYtv0OEyQL1Yf15tHMNI-11" value="Business Requirements" style="swimlane;whiteSpace=wrap;html=1;fontSize=10;" vertex="1" parent="ZYtv0OEyQL1Yf15tHMNI-3">
          <mxGeometry x="762" y="10" width="171" height="267" as="geometry">
            <mxRectangle x="830" y="10" width="170" height="30" as="alternateBounds" />
          </mxGeometry>
        </mxCell>
        <mxCell id="I2EaE8oWcEZbFD4AhC7--33" value="&lt;b&gt;&lt;u&gt;Functional Requirements&lt;/u&gt;&lt;/b&gt;&lt;div&gt;&lt;br&gt;&lt;/div&gt;&lt;div&gt;Multiple payment methods support&lt;/div&gt;&lt;div&gt;Real-time transaction processing&lt;/div&gt;&lt;div&gt;Multi-currency capabilities&lt;/div&gt;&lt;div&gt;Automated fraud detection&lt;/div&gt;&lt;div&gt;Comprehensive audit trails&lt;/div&gt;&lt;div&gt;&lt;br&gt;&lt;/div&gt;&lt;div&gt;&lt;br&gt;&lt;/div&gt;&lt;div&gt;&lt;br&gt;&lt;/div&gt;&lt;div&gt;&lt;div&gt;&lt;b&gt;&lt;u&gt;Non-Functional Requirements&lt;/u&gt;&lt;/b&gt;&lt;/div&gt;&lt;div&gt;&lt;b&gt;&lt;u&gt;&lt;br&gt;&lt;/u&gt;&lt;/b&gt;&lt;/div&gt;&lt;div&gt;Availability: 99.9% uptime&lt;/div&gt;&lt;div&gt;Performance: 10,000 TPS&lt;/div&gt;&lt;div&gt;Security: PCI DSS Level 1&lt;/div&gt;&lt;div&gt;Recovery: RTO &amp;lt; 4 hours&lt;/div&gt;&lt;div&gt;Scalability: Auto-scaling&lt;/div&gt;&lt;/div&gt;" style="text;strokeColor=none;fillColor=none;verticalAlign=middle;overflow=hidden;fontSize=10;html=1;whiteSpace=wrap;" vertex="1" parent="ZYtv0OEyQL1Yf15tHMNI-11">
          <mxGeometry x="10" y="31" width="180" height="249" as="geometry" />
        </mxCell>
        <mxCell id="ZYtv0OEyQL1Yf15tHMNI-4" value="Data" style="swimlane;startSize=76;horizontal=0;html=1;textDirection=vertical-lr;verticalAlign=top;align=center;fontSize=10;" vertex="1" parent="ZYtv0OEyQL1Yf15tHMNI-2">
          <mxGeometry y="461" width="953" height="545" as="geometry" />
        </mxCell>
        <mxCell id="d8PbGDOuZuQa3EtD0t0Y-1" value="Data Classification" style="swimlane;whiteSpace=wrap;html=1;fontSize=10;fontStyle=0" vertex="1" parent="ZYtv0OEyQL1Yf15tHMNI-4">
          <mxGeometry x="87" y="24" width="220" height="398" as="geometry" />
        </mxCell>
        <mxCell id="d8PbGDOuZuQa3EtD0t0Y-16" value="&lt;font&gt;Sensitive Authentication&amp;nbsp;&lt;/font&gt;&lt;span style=&quot;background-color: transparent; color: light-dark(rgb(0, 0, 0), rgb(255, 255, 255));&quot;&gt;Data (SAD)&lt;/span&gt;&lt;div&gt;&lt;div&gt;&lt;font style=&quot;font-size: 8px;&quot;&gt;Prohibited Storage&lt;/font&gt;&lt;/div&gt;&lt;/div&gt;" style="swimlane;fontStyle=0;childLayout=stackLayout;horizontal=1;startSize=30;horizontalStack=0;resizeParent=1;resizeParentMax=0;resizeLast=0;collapsible=1;marginBottom=0;whiteSpace=wrap;html=1;fontSize=10;" vertex="1" parent="d8PbGDOuZuQa3EtD0t0Y-1">
          <mxGeometry x="9" y="120.5" width="200" height="74" as="geometry" />
        </mxCell>
        <mxCell id="d8PbGDOuZuQa3EtD0t0Y-17" value="CVV/CVC (Card Verification Value)&lt;div&gt;PIN (personal identification number)&lt;/div&gt;&lt;div&gt;Magnetic Stripe Data&lt;/div&gt;" style="text;strokeColor=none;fillColor=none;align=left;verticalAlign=middle;spacingLeft=4;spacingRight=4;overflow=hidden;points=[[0,0.5],[1,0.5]];portConstraint=eastwest;rotatable=0;whiteSpace=wrap;html=1;fontSize=10;" vertex="1" parent="d8PbGDOuZuQa3EtD0t0Y-16">
          <mxGeometry y="30" width="200" height="44" as="geometry" />
        </mxCell>
        <mxCell id="d8PbGDOuZuQa3EtD0t0Y-5" value="Card Holder Data (CHD)&amp;nbsp;&lt;div&gt;&lt;font style=&quot;font-size: 8px;&quot;&gt;Highly Sensitive&lt;/font&gt;&lt;/div&gt;" style="swimlane;fontStyle=0;childLayout=stackLayout;horizontal=1;startSize=30;horizontalStack=0;resizeParent=1;resizeParentMax=0;resizeLast=0;collapsible=1;marginBottom=0;whiteSpace=wrap;html=1;fontSize=10;" vertex="1" parent="d8PbGDOuZuQa3EtD0t0Y-1">
          <mxGeometry x="8" y="30" width="202" height="83" as="geometry" />
        </mxCell>
        <mxCell id="d8PbGDOuZuQa3EtD0t0Y-6" value="Primary Acc No. (PAN)&amp;nbsp; -&amp;nbsp;&lt;span style=&quot;font-size: 8px; background-color: transparent; color: light-dark(rgb(0, 0, 0), rgb(255, 255, 255));&quot;&gt;(AES-256 Encrypted)&lt;/span&gt;&lt;div&gt;Cardholder Name&amp;nbsp; &amp;nbsp; &amp;nbsp; &amp;nbsp; &amp;nbsp; -&amp;nbsp;&lt;font style=&quot;font-size: 8px;&quot;&gt;(Tokenized)&lt;/font&gt;&lt;span style=&quot;font-size: 8px; background-color: transparent; color: light-dark(rgb(0, 0, 0), rgb(255, 255, 255));&quot;&gt;&lt;/span&gt;&lt;/div&gt;&lt;div&gt;&lt;font style=&quot;font-size: 8px;&quot;&gt;&lt;span style=&quot;font-size: 10px;&quot;&gt;Expiration Date&amp;nbsp; &amp;nbsp; &amp;nbsp; &amp;nbsp; &amp;nbsp; &amp;nbsp; &amp;nbsp; -&amp;nbsp;&lt;/span&gt;&lt;span style=&quot;color: light-dark(rgb(0, 0, 0), rgb(255, 255, 255)); background-color: transparent;&quot;&gt;(AES-256 Encrypted)&lt;/span&gt;&lt;/font&gt;&lt;/div&gt;&lt;div&gt;&lt;font style=&quot;font-size: 8px;&quot;&gt;&lt;span style=&quot;font-size: 10px;&quot;&gt;Service Code&amp;nbsp; &amp;nbsp; &amp;nbsp; &amp;nbsp; &amp;nbsp; &amp;nbsp; &amp;nbsp; &amp;nbsp; &amp;nbsp;-&amp;nbsp;&lt;/span&gt;&lt;span style=&quot;color: light-dark(rgb(0, 0, 0), rgb(255, 255, 255)); background-color: transparent;&quot;&gt;(AES-256 Encrypted)&lt;/span&gt;&lt;span style=&quot;color: light-dark(rgb(0, 0, 0), rgb(255, 255, 255)); background-color: transparent;&quot;&gt;&lt;/span&gt;&lt;/font&gt;&lt;/div&gt;" style="text;strokeColor=none;fillColor=none;align=left;verticalAlign=middle;spacingLeft=4;spacingRight=4;overflow=hidden;points=[[0,0.5],[1,0.5]];portConstraint=eastwest;rotatable=0;whiteSpace=wrap;html=1;fontSize=10;fontStyle=0" vertex="1" parent="d8PbGDOuZuQa3EtD0t0Y-5">
          <mxGeometry y="30" width="202" height="53" as="geometry" />
        </mxCell>
        <mxCell id="d8PbGDOuZuQa3EtD0t0Y-21" value="&lt;span style=&quot;font-weight: normal;&quot;&gt;Transaction Data&lt;/span&gt;&lt;div&gt;&lt;span style=&quot;font-weight: normal;&quot;&gt;&lt;font style=&quot;font-size: 8px;&quot;&gt;Business Critical&lt;/font&gt;&lt;/span&gt;&lt;/div&gt;" style="swimlane;whiteSpace=wrap;html=1;fontSize=10;startSize=26;" vertex="1" parent="d8PbGDOuZuQa3EtD0t0Y-1">
          <mxGeometry x="9" y="202" width="200" height="93" as="geometry" />
        </mxCell>
        <mxCell id="d8PbGDOuZuQa3EtD0t0Y-22" value="Transaction ID&lt;div&gt;Amount&lt;/div&gt;&lt;div&gt;Currency&lt;/div&gt;&lt;div&gt;Time-stamp&lt;/div&gt;&lt;div&gt;Merchant Information&lt;/div&gt;" style="text;html=1;align=left;verticalAlign=middle;resizable=0;points=[];autosize=1;strokeColor=none;fillColor=none;fontSize=10;" vertex="1" parent="d8PbGDOuZuQa3EtD0t0Y-21">
          <mxGeometry x="4" y="24" width="113" height="72" as="geometry" />
        </mxCell>
        <mxCell id="d8PbGDOuZuQa3EtD0t0Y-23" value="Customer Data&lt;div&gt;&lt;font style=&quot;font-size: 8px;&quot;&gt;Privacy protected&lt;/font&gt;&lt;/div&gt;" style="swimlane;whiteSpace=wrap;html=1;fontSize=10;fontStyle=0;startSize=26;" vertex="1" parent="d8PbGDOuZuQa3EtD0t0Y-1">
          <mxGeometry x="11" y="303" width="200" height="87" as="geometry" />
        </mxCell>
        <mxCell id="d8PbGDOuZuQa3EtD0t0Y-24" value="Customer ID&amp;nbsp; &amp;nbsp; &amp;nbsp; &amp;nbsp; &amp;nbsp; &amp;nbsp; &amp;nbsp; &amp;nbsp;&amp;nbsp;&lt;font style=&quot;font-size: 8px;&quot;&gt;- SHA-256 Hashed&lt;/font&gt;&lt;div&gt;Contact Info&amp;nbsp; &amp;nbsp; &amp;nbsp; &amp;nbsp; &amp;nbsp; &amp;nbsp; &amp;nbsp; &amp;nbsp; &amp;nbsp;&lt;font style=&quot;font-size: 8px;&quot;&gt;- AES-256 Encrypted&lt;/font&gt;&lt;/div&gt;&lt;div&gt;Billing address&amp;nbsp; &amp;nbsp; &amp;nbsp; &amp;nbsp; &amp;nbsp; &amp;nbsp; &amp;nbsp;&lt;font style=&quot;font-size: 8px;&quot;&gt;- AES-256 Encrypted&lt;/font&gt;&lt;/div&gt;&lt;div&gt;Account Status&amp;nbsp; &amp;nbsp; &amp;nbsp; &amp;nbsp; &amp;nbsp; &amp;nbsp;&amp;nbsp;&lt;font style=&quot;font-size: 8px;&quot;&gt;- Plain Text&lt;/font&gt;&lt;/div&gt;" style="text;html=1;align=left;verticalAlign=middle;resizable=0;points=[];autosize=1;strokeColor=none;fillColor=none;fontSize=10;fontStyle=0" vertex="1" parent="d8PbGDOuZuQa3EtD0t0Y-23">
          <mxGeometry x="2" y="27" width="194" height="60" as="geometry" />
        </mxCell>
        <mxCell id="d8PbGDOuZuQa3EtD0t0Y-2" value="Encryption Standards" style="swimlane;whiteSpace=wrap;html=1;fontSize=10;" vertex="1" parent="ZYtv0OEyQL1Yf15tHMNI-4">
          <mxGeometry x="351" y="23" width="205" height="88" as="geometry" />
        </mxCell>
        <mxCell id="d8PbGDOuZuQa3EtD0t0Y-55" value="At Rest&amp;nbsp; &amp;nbsp; &amp;nbsp; &amp;nbsp; &amp;nbsp; &amp;nbsp; &amp;nbsp; &amp;nbsp; &amp;nbsp; &amp;nbsp;:&amp;nbsp; AES-256 Encrypted&lt;div&gt;In Transit&amp;nbsp; &amp;nbsp; &amp;nbsp; &amp;nbsp; &amp;nbsp; &amp;nbsp; &amp;nbsp; &amp;nbsp; :&amp;nbsp; TLS 1.3&lt;/div&gt;&lt;div&gt;Key Management&amp;nbsp; :&amp;nbsp; HSM&lt;/div&gt;&lt;div&gt;Tokenization&amp;nbsp; &amp;nbsp; &amp;nbsp; &amp;nbsp; &amp;nbsp; :&amp;nbsp; Format Preserving&lt;/div&gt;" style="text;html=1;align=left;verticalAlign=middle;resizable=0;points=[];autosize=1;strokeColor=none;fillColor=none;fontSize=10;" vertex="1" parent="d8PbGDOuZuQa3EtD0t0Y-2">
          <mxGeometry x="16" y="28" width="199" height="60" as="geometry" />
        </mxCell>
        <mxCell id="d8PbGDOuZuQa3EtD0t0Y-4" value="PCI DSS Compliance" style="swimlane;whiteSpace=wrap;html=1;fontSize=10;" vertex="1" parent="ZYtv0OEyQL1Yf15tHMNI-4">
          <mxGeometry x="762" y="21" width="175" height="89" as="geometry" />
        </mxCell>
        <mxCell id="d8PbGDOuZuQa3EtD0t0Y-56" value="Note:&amp;nbsp;&lt;div&gt;Compliance requirements met&amp;nbsp;&lt;/div&gt;&lt;div&gt;through&amp;nbsp;&lt;span style=&quot;background-color: transparent; color: light-dark(rgb(0, 0, 0), rgb(255, 255, 255));&quot;&gt;different&amp;nbsp;&lt;/span&gt;&lt;span style=&quot;background-color: transparent; color: light-dark(rgb(0, 0, 0), rgb(255, 255, 255));&quot;&gt;elements of the&amp;nbsp;&lt;/span&gt;&lt;/div&gt;&lt;div&gt;&lt;span style=&quot;background-color: transparent; color: light-dark(rgb(0, 0, 0), rgb(255, 255, 255));&quot;&gt;architecture.&amp;nbsp;&lt;/span&gt;&lt;/div&gt;" style="text;html=1;align=left;verticalAlign=middle;resizable=0;points=[];autosize=1;strokeColor=none;fillColor=none;fontSize=10;" vertex="1" parent="d8PbGDOuZuQa3EtD0t0Y-4">
          <mxGeometry x="10" y="28" width="165" height="60" as="geometry" />
        </mxCell>
        <mxCell id="d8PbGDOuZuQa3EtD0t0Y-26" value="Data Flow Architecture" style="swimlane;startSize=20;horizontal=1;childLayout=flowLayout;flowOrientation=north;resizable=0;interRankCellSpacing=50;containerType=tree;fontSize=10;" vertex="1" parent="ZYtv0OEyQL1Yf15tHMNI-4">
          <mxGeometry x="600" y="20" width="140" height="500" as="geometry" />
        </mxCell>
        <mxCell id="d8PbGDOuZuQa3EtD0t0Y-27" value="Customer" style="whiteSpace=wrap;html=1;fontSize=10;" vertex="1" parent="d8PbGDOuZuQa3EtD0t0Y-26">
          <mxGeometry x="20" y="40" width="100" height="20" as="geometry" />
        </mxCell>
        <mxCell id="d8PbGDOuZuQa3EtD0t0Y-30" value="Payment Form" style="whiteSpace=wrap;html=1;fontSize=10;" vertex="1" parent="d8PbGDOuZuQa3EtD0t0Y-26">
          <mxGeometry x="20" y="110" width="100" height="20" as="geometry" />
        </mxCell>
        <mxCell id="d8PbGDOuZuQa3EtD0t0Y-31" value="" style="html=1;rounded=1;curved=0;sourcePerimeterSpacing=0;targetPerimeterSpacing=0;startSize=6;endSize=6;noEdgeStyle=1;orthogonal=1;fontSize=10;" edge="1" parent="d8PbGDOuZuQa3EtD0t0Y-26" source="d8PbGDOuZuQa3EtD0t0Y-27" target="d8PbGDOuZuQa3EtD0t0Y-30">
          <mxGeometry relative="1" as="geometry">
            <Array as="points">
              <mxPoint x="70" y="72" />
              <mxPoint x="70" y="98" />
            </Array>
          </mxGeometry>
        </mxCell>
        <mxCell id="d8PbGDOuZuQa3EtD0t0Y-39" value="" style="html=1;rounded=1;curved=0;sourcePerimeterSpacing=0;targetPerimeterSpacing=0;startSize=6;endSize=6;noEdgeStyle=1;orthogonal=1;fontSize=10;" edge="1" parent="d8PbGDOuZuQa3EtD0t0Y-26" source="d8PbGDOuZuQa3EtD0t0Y-30" target="d8PbGDOuZuQa3EtD0t0Y-40">
          <mxGeometry relative="1" as="geometry">
            <mxPoint x="1412" y="2546" as="sourcePoint" />
            <Array as="points">
              <mxPoint x="70" y="142" />
              <mxPoint x="70" y="168" />
            </Array>
          </mxGeometry>
        </mxCell>
        <mxCell id="d8PbGDOuZuQa3EtD0t0Y-40" value="API Gateway" style="whiteSpace=wrap;html=1;fontSize=10;" vertex="1" parent="d8PbGDOuZuQa3EtD0t0Y-26">
          <mxGeometry x="20" y="180" width="100" height="20" as="geometry" />
        </mxCell>
        <mxCell id="d8PbGDOuZuQa3EtD0t0Y-43" value="" style="html=1;rounded=1;curved=0;sourcePerimeterSpacing=0;targetPerimeterSpacing=0;startSize=6;endSize=6;noEdgeStyle=1;orthogonal=1;fontSize=10;" edge="1" parent="d8PbGDOuZuQa3EtD0t0Y-26" source="d8PbGDOuZuQa3EtD0t0Y-40" target="d8PbGDOuZuQa3EtD0t0Y-44">
          <mxGeometry relative="1" as="geometry">
            <mxPoint x="1332" y="2476" as="sourcePoint" />
            <Array as="points">
              <mxPoint x="70" y="212" />
              <mxPoint x="70" y="238" />
            </Array>
          </mxGeometry>
        </mxCell>
        <mxCell id="d8PbGDOuZuQa3EtD0t0Y-44" value="Tokenization" style="whiteSpace=wrap;html=1;fontSize=10;" vertex="1" parent="d8PbGDOuZuQa3EtD0t0Y-26">
          <mxGeometry x="20" y="250" width="100" height="20" as="geometry" />
        </mxCell>
        <mxCell id="d8PbGDOuZuQa3EtD0t0Y-45" value="" style="html=1;rounded=1;curved=0;sourcePerimeterSpacing=0;targetPerimeterSpacing=0;startSize=6;endSize=6;noEdgeStyle=1;orthogonal=1;fontSize=10;" edge="1" parent="d8PbGDOuZuQa3EtD0t0Y-26" source="d8PbGDOuZuQa3EtD0t0Y-44" target="d8PbGDOuZuQa3EtD0t0Y-46">
          <mxGeometry relative="1" as="geometry">
            <mxPoint x="1312" y="2526" as="sourcePoint" />
            <Array as="points">
              <mxPoint x="70" y="282" />
              <mxPoint x="70" y="308" />
            </Array>
          </mxGeometry>
        </mxCell>
        <mxCell id="d8PbGDOuZuQa3EtD0t0Y-46" value="Encrypted Storage" style="whiteSpace=wrap;html=1;fontSize=10;" vertex="1" parent="d8PbGDOuZuQa3EtD0t0Y-26">
          <mxGeometry x="20" y="320" width="100" height="20" as="geometry" />
        </mxCell>
        <mxCell id="d8PbGDOuZuQa3EtD0t0Y-47" value="" style="html=1;rounded=1;curved=0;sourcePerimeterSpacing=0;targetPerimeterSpacing=0;startSize=6;endSize=6;noEdgeStyle=1;orthogonal=1;fontSize=10;" edge="1" parent="d8PbGDOuZuQa3EtD0t0Y-26" source="d8PbGDOuZuQa3EtD0t0Y-46" target="d8PbGDOuZuQa3EtD0t0Y-48">
          <mxGeometry relative="1" as="geometry">
            <mxPoint x="1292" y="2576" as="sourcePoint" />
            <Array as="points">
              <mxPoint x="70" y="352" />
              <mxPoint x="70" y="378" />
            </Array>
          </mxGeometry>
        </mxCell>
        <mxCell id="d8PbGDOuZuQa3EtD0t0Y-48" value="Processing Engine" style="whiteSpace=wrap;html=1;fontSize=10;" vertex="1" parent="d8PbGDOuZuQa3EtD0t0Y-26">
          <mxGeometry x="20" y="390" width="100" height="20" as="geometry" />
        </mxCell>
        <mxCell id="d8PbGDOuZuQa3EtD0t0Y-49" value="" style="html=1;rounded=1;curved=0;sourcePerimeterSpacing=0;targetPerimeterSpacing=0;startSize=6;endSize=6;noEdgeStyle=1;orthogonal=1;fontSize=10;" edge="1" parent="d8PbGDOuZuQa3EtD0t0Y-26" source="d8PbGDOuZuQa3EtD0t0Y-48" target="d8PbGDOuZuQa3EtD0t0Y-50">
          <mxGeometry relative="1" as="geometry">
            <mxPoint x="1272" y="2626" as="sourcePoint" />
            <Array as="points">
              <mxPoint x="70" y="422" />
              <mxPoint x="70" y="448" />
            </Array>
          </mxGeometry>
        </mxCell>
        <mxCell id="d8PbGDOuZuQa3EtD0t0Y-50" value="Payment Netwroks" style="whiteSpace=wrap;html=1;fontSize=10;" vertex="1" parent="d8PbGDOuZuQa3EtD0t0Y-26">
          <mxGeometry x="20" y="460" width="100" height="20" as="geometry" />
        </mxCell>
        <mxCell id="d8PbGDOuZuQa3EtD0t0Y-57" value="Data Storage Strategy" style="swimlane;whiteSpace=wrap;html=1;fontSize=10;" vertex="1" parent="ZYtv0OEyQL1Yf15tHMNI-4">
          <mxGeometry x="351" y="124" width="207" height="213" as="geometry" />
        </mxCell>
        <mxCell id="d8PbGDOuZuQa3EtD0t0Y-59" value="&lt;span style=&quot;font-weight: 400; text-wrap-mode: nowrap;&quot;&gt;Primary Data Stores&lt;/span&gt;" style="swimlane;whiteSpace=wrap;html=1;fontSize=10;" vertex="1" parent="d8PbGDOuZuQa3EtD0t0Y-57">
          <mxGeometry x="6.5" y="34" width="194" height="77.5" as="geometry" />
        </mxCell>
        <mxCell id="d8PbGDOuZuQa3EtD0t0Y-60" value="Transactional DB: PostgreSQL with encryption&lt;div&gt;&lt;span style=&quot;background-color: transparent; color: light-dark(rgb(0, 0, 0), rgb(255, 255, 255));&quot;&gt;Payment Vault: HSM protected Storage&lt;/span&gt;&lt;div&gt;Analytics Lake: Secure data waehouse&lt;/div&gt;&lt;div&gt;Audit Logs: Immutable WOMR storage&lt;/div&gt;&lt;/div&gt;" style="text;html=1;align=left;verticalAlign=middle;resizable=0;points=[];autosize=1;strokeColor=none;fillColor=none;fontSize=9;" vertex="1" parent="d8PbGDOuZuQa3EtD0t0Y-59">
          <mxGeometry x="2" y="23" width="203" height="55" as="geometry" />
        </mxCell>
        <mxCell id="d8PbGDOuZuQa3EtD0t0Y-61" value="&lt;span style=&quot;font-weight: 400; text-wrap-mode: nowrap;&quot;&gt;Retention Policies&lt;/span&gt;" style="swimlane;whiteSpace=wrap;html=1;fontSize=10;" vertex="1" parent="d8PbGDOuZuQa3EtD0t0Y-57">
          <mxGeometry x="6.5" y="123.25" width="194" height="78" as="geometry" />
        </mxCell>
        <mxCell id="d8PbGDOuZuQa3EtD0t0Y-62" value="Transaction data: 7 years&lt;div&gt;Audit Logs: 3-7 years&lt;/div&gt;&lt;div&gt;Customer Data: until closure + 1 year&lt;/div&gt;&lt;div&gt;CHD: Immediate Purge when possible&lt;/div&gt;" style="text;html=1;align=left;verticalAlign=middle;resizable=0;points=[];autosize=1;strokeColor=none;fillColor=none;fontSize=9;" vertex="1" parent="d8PbGDOuZuQa3EtD0t0Y-61">
          <mxGeometry x="2" y="23" width="171" height="55" as="geometry" />
        </mxCell>
        <mxCell id="ZYtv0OEyQL1Yf15tHMNI-5" value="Application" style="swimlane;startSize=76;horizontal=0;html=1;textDirection=vertical-lr;verticalAlign=top;fontSize=10;" vertex="1" parent="ZYtv0OEyQL1Yf15tHMNI-2">
          <mxGeometry y="1006" width="953" height="525" as="geometry" />
        </mxCell>
        <mxCell id="d8PbGDOuZuQa3EtD0t0Y-63" value="Microservices Architecture" style="swimlane;whiteSpace=wrap;html=1;fontSize=10;" vertex="1" parent="ZYtv0OEyQL1Yf15tHMNI-5">
          <mxGeometry x="85" y="8" width="200" height="336" as="geometry" />
        </mxCell>
        <mxCell id="d8PbGDOuZuQa3EtD0t0Y-71" value="&lt;b&gt;API Gateway Layer:&lt;/b&gt;&lt;div&gt;- Authentication&lt;/div&gt;&lt;div&gt;- Authorization&lt;/div&gt;&lt;div&gt;- Rate limiting&lt;/div&gt;&lt;div&gt;- Monitoring&lt;/div&gt;&lt;div&gt;&lt;b&gt;&lt;br&gt;&lt;/b&gt;&lt;/div&gt;&lt;div&gt;&lt;b&gt;Business Services Layer&lt;/b&gt;&lt;/div&gt;&lt;div&gt;- Payment Service&lt;/div&gt;&lt;div&gt;- Customer Service&lt;/div&gt;&lt;div&gt;- Merchant Service&lt;/div&gt;&lt;div&gt;- Risk Service&lt;/div&gt;&lt;div&gt;&lt;br&gt;&lt;/div&gt;&lt;div&gt;&lt;b&gt;Data Services Layer&lt;/b&gt;&lt;/div&gt;&lt;div&gt;- Tokenization&lt;/div&gt;&lt;div&gt;- Encryption&lt;/div&gt;&lt;div&gt;- Audit&lt;/div&gt;&lt;div&gt;- Notification&lt;/div&gt;&lt;div&gt;- Reporting&lt;/div&gt;&lt;div&gt;&lt;br&gt;&lt;/div&gt;&lt;div&gt;&lt;b&gt;Infrastructure Service Layer&lt;/b&gt;&lt;/div&gt;&lt;div&gt;- Logging&lt;/div&gt;&lt;div&gt;- Monitoring&lt;/div&gt;&lt;div&gt;- Configuration&lt;/div&gt;&lt;div&gt;- Service Discovery&lt;/div&gt;" style="text;html=1;align=left;verticalAlign=middle;resizable=0;points=[];autosize=1;strokeColor=none;fillColor=none;fontSize=10;" vertex="1" parent="d8PbGDOuZuQa3EtD0t0Y-63">
          <mxGeometry x="9" y="27" width="151" height="300" as="geometry" />
        </mxCell>
        <mxCell id="d8PbGDOuZuQa3EtD0t0Y-64" value="Core Payment Applications" style="swimlane;whiteSpace=wrap;html=1;fontSize=10;" vertex="1" parent="ZYtv0OEyQL1Yf15tHMNI-5">
          <mxGeometry x="294" y="8" width="462" height="508" as="geometry">
            <mxRectangle x="294" y="8" width="155" height="24" as="alternateBounds" />
          </mxGeometry>
        </mxCell>
        <mxCell id="d8PbGDOuZuQa3EtD0t0Y-72" value="Payment Gateway" style="swimlane;whiteSpace=wrap;html=1;fontSize=10;" vertex="1" parent="d8PbGDOuZuQa3EtD0t0Y-64">
          <mxGeometry x="8" y="30" width="205.5" height="252" as="geometry">
            <mxRectangle x="8" y="30" width="117" height="24" as="alternateBounds" />
          </mxGeometry>
        </mxCell>
        <mxCell id="d8PbGDOuZuQa3EtD0t0Y-73" value="&lt;b&gt;&lt;u style=&quot;&quot;&gt;Core Transaction Processing Platform&lt;/u&gt;&lt;/b&gt;&lt;div&gt;&lt;br&gt;&lt;/div&gt;&lt;div style=&quot;text-align: left;&quot;&gt;Transaction Processing API&lt;/div&gt;&lt;div style=&quot;text-align: left;&quot;&gt;&amp;nbsp;- RESTful APIs&lt;/div&gt;&lt;div style=&quot;text-align: left;&quot;&gt;&amp;nbsp;- (Java Spring Boot, PostgreSQL)&lt;/div&gt;&lt;div style=&quot;text-align: left;&quot;&gt;&lt;br&gt;&lt;/div&gt;&lt;div style=&quot;text-align: left;&quot;&gt;Payment Method Management&lt;/div&gt;&lt;div style=&quot;text-align: left;&quot;&gt;&amp;nbsp;- Multi-payment method support&lt;/div&gt;&lt;div style=&quot;text-align: left;&quot;&gt;&amp;nbsp; &amp;nbsp;and Routing&amp;nbsp;&lt;/div&gt;&lt;div style=&quot;text-align: left;&quot;&gt;&amp;nbsp;- (Node.js, Redis Cache)&lt;/div&gt;&lt;div style=&quot;text-align: left;&quot;&gt;&lt;br&gt;&lt;/div&gt;&lt;div style=&quot;text-align: left;&quot;&gt;Merchant Portal&lt;/div&gt;&lt;div style=&quot;text-align: left;&quot;&gt;&amp;nbsp;- Self service merchant mngmnt interface&lt;/div&gt;&lt;div style=&quot;text-align: left;&quot;&gt;&amp;nbsp;- (&lt;span style=&quot;background-color: transparent; color: light-dark(rgb(0, 0, 0), rgb(255, 255, 255));&quot;&gt;React.js, Material-UI)&lt;/span&gt;&lt;/div&gt;&lt;div style=&quot;text-align: left;&quot;&gt;&lt;span style=&quot;background-color: transparent; color: light-dark(rgb(0, 0, 0), rgb(255, 255, 255));&quot;&gt;&lt;br&gt;&lt;/span&gt;&lt;/div&gt;&lt;div style=&quot;text-align: left;&quot;&gt;Customer Payment Interface&lt;/div&gt;&lt;div style=&quot;text-align: left;&quot;&gt;&amp;nbsp;- Secure customer-facing payment forms&lt;/div&gt;&lt;div style=&quot;text-align: left;&quot;&gt;&amp;nbsp;- (Vue.js, PCI-compliant widgets)&lt;/div&gt;" style="text;html=1;align=center;verticalAlign=middle;resizable=0;points=[];autosize=1;strokeColor=none;fillColor=none;fontSize=10;" vertex="1" parent="d8PbGDOuZuQa3EtD0t0Y-72">
          <mxGeometry x="2" y="24" width="203" height="228" as="geometry" />
        </mxCell>
        <mxCell id="d8PbGDOuZuQa3EtD0t0Y-74" value="Risk Management Platform" style="swimlane;whiteSpace=wrap;html=1;fontSize=10;" vertex="1" parent="d8PbGDOuZuQa3EtD0t0Y-64">
          <mxGeometry x="8" y="290" width="205" height="211" as="geometry">
            <mxRectangle x="8" y="290" width="156" height="24" as="alternateBounds" />
          </mxGeometry>
        </mxCell>
        <mxCell id="d8PbGDOuZuQa3EtD0t0Y-75" value="&lt;font&gt;Fraud detection engine&lt;/font&gt;&lt;div&gt;&lt;font&gt;- real time fraud analysis &amp;amp; scoring&lt;/font&gt;&lt;/div&gt;&lt;div&gt;&lt;font&gt;- (Python ML, TensorFlow, Kafka)&lt;/font&gt;&lt;/div&gt;&lt;div&gt;&lt;font&gt;&lt;br&gt;&lt;/font&gt;&lt;/div&gt;&lt;div&gt;Risk Scoring service&lt;/div&gt;&lt;div&gt;- Transaction risk assessment algorithms&lt;/div&gt;&lt;div&gt;- (Python, scikit-learn, Redis)&lt;/div&gt;&lt;div&gt;&lt;br&gt;&lt;/div&gt;&lt;div&gt;Rule Engine&lt;/div&gt;&lt;div&gt;- Configurable business rules processing&lt;/div&gt;&lt;div&gt;- (Drools, java, MongoDB)&lt;/div&gt;&lt;div&gt;&lt;br&gt;&lt;/div&gt;&lt;div&gt;Machine Learning Models&lt;/div&gt;&lt;div&gt;- Adaptive fraud detection models&lt;/div&gt;&lt;div&gt;- (MLflow, Docker, Kubernetes)&lt;/div&gt;" style="text;html=1;align=left;verticalAlign=middle;resizable=0;points=[];autosize=1;strokeColor=none;fillColor=none;fontSize=10;" vertex="1" parent="d8PbGDOuZuQa3EtD0t0Y-74">
          <mxGeometry x="6" y="22" width="199" height="192" as="geometry" />
        </mxCell>
        <mxCell id="d8PbGDOuZuQa3EtD0t0Y-76" value="Compliance Management Suite" style="swimlane;whiteSpace=wrap;html=1;fontSize=10;" vertex="1" parent="d8PbGDOuZuQa3EtD0t0Y-64">
          <mxGeometry x="226" y="30" width="228" height="216" as="geometry">
            <mxRectangle x="226" y="30" width="175" height="24" as="alternateBounds" />
          </mxGeometry>
        </mxCell>
        <mxCell id="d8PbGDOuZuQa3EtD0t0Y-77" value="&lt;div&gt;PCI DSS Monitoring&lt;/div&gt;&lt;div&gt;- Continuous compliance monitoring dashboard&lt;/div&gt;&lt;div&gt;- (Grafana, Prometheus, ELK Stack)&lt;/div&gt;&lt;div&gt;&lt;br&gt;&lt;/div&gt;&lt;div&gt;Audit Management&lt;/div&gt;&lt;div&gt;- Internal and external audit coordination&lt;/div&gt;&lt;div&gt;- (Angular, .NET Core, SQL Server)&lt;/div&gt;&lt;div&gt;&lt;br&gt;&lt;/div&gt;&lt;div&gt;Policy Engine&lt;/div&gt;&lt;div&gt;- Automated policy enforcement and validation&lt;/div&gt;&lt;div&gt;- (Open Policy Agent, YAML configs)&lt;/div&gt;&lt;div&gt;&lt;br&gt;&lt;/div&gt;&lt;div&gt;Reporting Dashboard&lt;/div&gt;&lt;div&gt;- Executive and regulatory reporting interface&lt;/div&gt;&lt;div&gt;- (Power BI, Tableau, REST APIs)&lt;/div&gt;" style="text;html=1;align=left;verticalAlign=middle;resizable=0;points=[];autosize=1;strokeColor=none;fillColor=none;fontSize=10;" vertex="1" parent="d8PbGDOuZuQa3EtD0t0Y-76">
          <mxGeometry x="6" y="24" width="228" height="192" as="geometry" />
        </mxCell>
        <mxCell id="d8PbGDOuZuQa3EtD0t0Y-78" value="Integration Layer" style="swimlane;whiteSpace=wrap;html=1;fontSize=10;" vertex="1" parent="d8PbGDOuZuQa3EtD0t0Y-64">
          <mxGeometry x="223" y="290" width="231" height="211" as="geometry">
            <mxRectangle x="223" y="290" width="110" height="24" as="alternateBounds" />
          </mxGeometry>
        </mxCell>
        <mxCell id="d8PbGDOuZuQa3EtD0t0Y-79" value="&lt;div&gt;API Gateway&lt;/div&gt;&lt;div&gt;- Centralized API management and routing&lt;/div&gt;&lt;div&gt;- (Kong, NGINX, OAuth 2.0)&lt;/div&gt;&lt;div&gt;&lt;br&gt;&lt;/div&gt;&lt;div&gt;Message Queue&lt;/div&gt;&lt;div&gt;- Asynchronous message processing&lt;/div&gt;&lt;div&gt;- (Apache Kafka, RabbitMQ)&lt;/div&gt;&lt;div&gt;&lt;br&gt;&lt;/div&gt;&lt;div&gt;Event Streaming&lt;/div&gt;&lt;div&gt;- Real-time event processing and routing&lt;/div&gt;&lt;div&gt;- (Apache Kafka Streams, Akka)&lt;/div&gt;&lt;div&gt;&lt;br&gt;&lt;/div&gt;&lt;div&gt;Service Mesh&lt;/div&gt;&lt;div&gt;- Service-to-service communication management&lt;/div&gt;&lt;div&gt;- (Istio, Envoy, Kubernetes)&lt;/div&gt;" style="text;html=1;align=left;verticalAlign=middle;resizable=0;points=[];autosize=1;strokeColor=none;fillColor=none;fontSize=10;" vertex="1" parent="d8PbGDOuZuQa3EtD0t0Y-78">
          <mxGeometry x="3" y="22" width="235" height="192" as="geometry" />
        </mxCell>
        <mxCell id="d8PbGDOuZuQa3EtD0t0Y-65" value="Security Controls" style="swimlane;whiteSpace=wrap;html=1;fontSize=10;" vertex="1" parent="ZYtv0OEyQL1Yf15tHMNI-5">
          <mxGeometry x="766" y="8" width="169" height="200" as="geometry" />
        </mxCell>
        <mxCell id="d8PbGDOuZuQa3EtD0t0Y-80" value="&lt;div&gt;Application Security Controls&lt;/div&gt;&lt;div&gt;- OWASP Top 10 protection&lt;/div&gt;&lt;div&gt;- Input validation (server-side)&lt;/div&gt;&lt;div&gt;- Output encoding (XSS prevention)&lt;/div&gt;&lt;div&gt;- Multi-factor authentication&lt;/div&gt;&lt;div style=&quot;&quot;&gt;- Secure session management&lt;/div&gt;&lt;div style=&quot;&quot;&gt;&lt;br&gt;&lt;/div&gt;&lt;div style=&quot;&quot;&gt;&lt;div&gt;PCI DSS Application Requirements&lt;/div&gt;&lt;div&gt;- Req 6: Secure development&lt;/div&gt;&lt;div&gt;- Req 7: Role-based access&lt;/div&gt;&lt;div&gt;- Req 8: User authentication&lt;/div&gt;&lt;div&gt;- Req 10: Logging &amp;amp; monitoring&lt;/div&gt;&lt;/div&gt;" style="text;html=1;align=left;verticalAlign=middle;resizable=0;points=[];autosize=1;strokeColor=none;fillColor=none;fontSize=10;" vertex="1" parent="d8PbGDOuZuQa3EtD0t0Y-65">
          <mxGeometry x="4" y="25" width="176" height="156" as="geometry" />
        </mxCell>
        <mxCell id="d8PbGDOuZuQa3EtD0t0Y-66" value="Integration Patterns" style="swimlane;whiteSpace=wrap;html=1;fontSize=10;" vertex="1" parent="ZYtv0OEyQL1Yf15tHMNI-5">
          <mxGeometry x="764" y="298" width="174" height="200" as="geometry" />
        </mxCell>
        <mxCell id="d8PbGDOuZuQa3EtD0t0Y-81" value="&lt;div&gt;Internal Integration&lt;/div&gt;&lt;div&gt;- Service Mesh: Istio&lt;/div&gt;&lt;div&gt;- Event-Driven: Apache Kafka&lt;/div&gt;&lt;div&gt;- API Gateway: Kong&lt;/div&gt;&lt;div&gt;- Circuit Breaker: Hystrix&lt;/div&gt;&lt;div&gt;&lt;br&gt;&lt;/div&gt;&lt;div&gt;&lt;div&gt;External Integration&lt;/div&gt;&lt;div&gt;- Payment Networks: Direct API&lt;/div&gt;&lt;div&gt;- Banking: SWIFT, FedACH&lt;/div&gt;&lt;div&gt;- Third-Party: Webhooks&lt;/div&gt;&lt;div&gt;- Regulatory: Automated FTP&lt;/div&gt;&lt;/div&gt;" style="text;html=1;align=left;verticalAlign=middle;resizable=0;points=[];autosize=1;strokeColor=none;fillColor=none;fontSize=10;" vertex="1" parent="d8PbGDOuZuQa3EtD0t0Y-66">
          <mxGeometry x="6" y="30" width="158" height="144" as="geometry" />
        </mxCell>
        <mxCell id="ZYtv0OEyQL1Yf15tHMNI-6" value="Technology" style="swimlane;startSize=76;horizontal=0;html=1;textDirection=vertical-lr;verticalAlign=top;fontSize=10;" vertex="1" parent="ZYtv0OEyQL1Yf15tHMNI-2">
          <mxGeometry y="1531" width="953" height="309" as="geometry" />
        </mxCell>
        <mxCell id="d8PbGDOuZuQa3EtD0t0Y-67" value="Technology Stack" style="swimlane;whiteSpace=wrap;html=1;fontSize=10;" vertex="1" parent="ZYtv0OEyQL1Yf15tHMNI-6">
          <mxGeometry x="82" y="11" width="214" height="245" as="geometry" />
        </mxCell>
        <mxCell id="d8PbGDOuZuQa3EtD0t0Y-82" value="Cloud Platform (AWS/Azure)&lt;div&gt;- multi-region&lt;span style=&quot;background-color: transparent; color: light-dark(rgb(0, 0, 0), rgb(255, 255, 255));&quot;&gt;&amp;nbsp;&lt;/span&gt;&lt;span style=&quot;background-color: transparent; color: light-dark(rgb(0, 0, 0), rgb(255, 255, 255));&quot;&gt;auto-scaling&lt;/span&gt;&lt;span style=&quot;background-color: transparent; color: light-dark(rgb(0, 0, 0), rgb(255, 255, 255));&quot;&gt;&amp;nbsp;&lt;/span&gt;&lt;span style=&quot;background-color: transparent; color: light-dark(rgb(0, 0, 0), rgb(255, 255, 255));&quot;&gt;deployment&lt;/span&gt;&lt;/div&gt;&lt;div&gt;&lt;br&gt;&lt;/div&gt;&lt;div&gt;Container Orchestration&lt;/div&gt;&lt;div&gt;- Kubernetes with Istio Service Mesh&lt;/div&gt;&lt;div&gt;&lt;br&gt;&lt;/div&gt;&lt;div&gt;Runtime Environments&lt;/div&gt;&lt;div&gt;- Java 17, Node.js 18, Python 3.11, Go 1.19&lt;/div&gt;&lt;div&gt;&lt;br&gt;&lt;/div&gt;&lt;div&gt;Data Layer&lt;/div&gt;&lt;div&gt;-&amp;nbsp;&lt;span style=&quot;background-color: transparent;&quot;&gt;PostgreSQL | Redis | MongoDB | InfluxDB&lt;/span&gt;&lt;/div&gt;&lt;div&gt;&lt;span style=&quot;background-color: transparent; color: light-dark(rgb(0, 0, 0), rgb(255, 255, 255));&quot;&gt;&lt;br&gt;&lt;/span&gt;&lt;/div&gt;&lt;div&gt;&lt;span style=&quot;background-color: transparent;&quot;&gt;&lt;div style=&quot;&quot;&gt;Message Queues&lt;/div&gt;&lt;div style=&quot;&quot;&gt;- Apache Kafka | RabbitMQ | Amazon SQS&lt;/div&gt;&lt;div style=&quot;&quot;&gt;&lt;br&gt;&lt;/div&gt;&lt;div style=&quot;&quot;&gt;&lt;div&gt;Security Layer&lt;/div&gt;&lt;div&gt;- HashiCorp Vault | AWS KMS | Fortanix DSM&lt;/div&gt;&lt;/div&gt;&lt;div style=&quot;&quot;&gt;&lt;br&gt;&lt;/div&gt;&lt;div style=&quot;&quot;&gt;&lt;br&gt;&lt;/div&gt;&lt;/span&gt;&lt;/div&gt;" style="text;html=1;align=left;verticalAlign=middle;resizable=0;points=[];autosize=1;strokeColor=none;fillColor=none;fontSize=10;" vertex="1" parent="d8PbGDOuZuQa3EtD0t0Y-67">
          <mxGeometry x="5.5" y="27" width="220" height="240" as="geometry" />
        </mxCell>
        <mxCell id="d8PbGDOuZuQa3EtD0t0Y-68" value="Security Stack" style="swimlane;whiteSpace=wrap;html=1;fontSize=10;" vertex="1" parent="ZYtv0OEyQL1Yf15tHMNI-6">
          <mxGeometry x="306" y="13.5" width="200" height="240" as="geometry" />
        </mxCell>
        <mxCell id="d8PbGDOuZuQa3EtD0t0Y-85" value="&lt;div&gt;&lt;span style=&quot;font-size: 10px;&quot;&gt;Perimeter Security&lt;/span&gt;&lt;/div&gt;&lt;div&gt;&lt;span style=&quot;font-size: 10px;&quot;&gt;- WAF (Web Application Firewall)&lt;/span&gt;&lt;/div&gt;&lt;div&gt;&lt;span style=&quot;font-size: 10px;&quot;&gt;- DDoS Protection (CloudFlare)&lt;/span&gt;&lt;/div&gt;&lt;div&gt;&lt;span style=&quot;font-size: 10px;&quot;&gt;- VPN Gateway (IPsec)&lt;/span&gt;&lt;/div&gt;&lt;div&gt;&lt;span style=&quot;font-size: 10px;&quot;&gt;&lt;br&gt;&lt;/span&gt;&lt;/div&gt;&lt;div&gt;&lt;span style=&quot;font-size: 10px;&quot;&gt;Data Security&lt;/span&gt;&lt;/div&gt;&lt;div&gt;&lt;span style=&quot;font-size: 10px;&quot;&gt;- HSM (Hardware Security Modules)&lt;/span&gt;&lt;/div&gt;&lt;div&gt;&lt;span style=&quot;font-size: 10px;&quot;&gt;- Key Management (Vault, AWS KMS)&lt;/span&gt;&lt;/div&gt;&lt;div&gt;&lt;span style=&quot;font-size: 10px;&quot;&gt;- Database Encryption (TDE)&lt;/span&gt;&lt;/div&gt;&lt;div&gt;&lt;span style=&quot;font-size: 10px;&quot;&gt;&lt;br&gt;&lt;/span&gt;&lt;/div&gt;&lt;div&gt;&lt;span style=&quot;font-size: 10px;&quot;&gt;Identity &amp;amp; Access&lt;/span&gt;&lt;/div&gt;&lt;div&gt;&lt;span style=&quot;font-size: 10px;&quot;&gt;- SSO/SAML (Okta, Auth0)&lt;/span&gt;&lt;/div&gt;&lt;div&gt;&lt;span style=&quot;font-size: 10px;&quot;&gt;- PAM (CyberArk)&lt;/span&gt;&lt;/div&gt;&lt;div&gt;&lt;span style=&quot;font-size: 10px;&quot;&gt;- MFA (RSA, Duo)&lt;/span&gt;&lt;/div&gt;" style="text;html=1;align=left;verticalAlign=middle;resizable=0;points=[];autosize=1;strokeColor=none;fillColor=none;" vertex="1" parent="d8PbGDOuZuQa3EtD0t0Y-68">
          <mxGeometry x="7" y="21" width="186" height="213" as="geometry" />
        </mxCell>
        <mxCell id="d8PbGDOuZuQa3EtD0t0Y-69" value="Monitoring" style="swimlane;whiteSpace=wrap;html=1;fontSize=10;" vertex="1" parent="ZYtv0OEyQL1Yf15tHMNI-6">
          <mxGeometry x="790" y="14" width="113" height="244" as="geometry" />
        </mxCell>
        <mxCell id="d8PbGDOuZuQa3EtD0t0Y-86" value="&lt;div&gt;&lt;span style=&quot;font-size: 10px;&quot;&gt;System Uptime&lt;/span&gt;&lt;/div&gt;&lt;div&gt;&lt;span style=&quot;font-size: 10px;&quot;&gt;- 99.9%&lt;/span&gt;&lt;/div&gt;&lt;div&gt;&lt;span style=&quot;font-size: 10px;&quot;&gt;- SLA Target&lt;/span&gt;&lt;/div&gt;&lt;div&gt;&lt;span style=&quot;font-size: 10px;&quot;&gt;&lt;br&gt;&lt;/span&gt;&lt;/div&gt;&lt;div&gt;&lt;span style=&quot;font-size: 10px;&quot;&gt;Response Time&lt;/span&gt;&lt;/div&gt;&lt;div&gt;&lt;span style=&quot;font-size: 10px;&quot;&gt;- &amp;lt; 2s&lt;/span&gt;&lt;/div&gt;&lt;div&gt;&lt;span style=&quot;font-size: 10px;&quot;&gt;- 95th Percentile&lt;/span&gt;&lt;/div&gt;&lt;div&gt;&lt;span style=&quot;font-size: 10px;&quot;&gt;&lt;br&gt;&lt;/span&gt;&lt;/div&gt;&lt;div&gt;&lt;span style=&quot;font-size: 10px;&quot;&gt;Transaction Volume&lt;/span&gt;&lt;/div&gt;&lt;div&gt;&lt;span style=&quot;font-size: 10px;&quot;&gt;- 10K&lt;/span&gt;&lt;/div&gt;&lt;div&gt;&lt;span style=&quot;font-size: 10px;&quot;&gt;- TPS Capacity&lt;/span&gt;&lt;/div&gt;&lt;div&gt;&lt;span style=&quot;font-size: 10px;&quot;&gt;&lt;br&gt;&lt;/span&gt;&lt;/div&gt;&lt;div&gt;&lt;span style=&quot;font-size: 10px;&quot;&gt;Security Score&lt;/span&gt;&lt;/div&gt;&lt;div&gt;&lt;span style=&quot;font-size: 10px;&quot;&gt;- 100%&lt;/span&gt;&lt;/div&gt;&lt;div&gt;&lt;span style=&quot;font-size: 10px;&quot;&gt;- PCI Compliance&lt;/span&gt;&lt;/div&gt;" style="text;html=1;align=left;verticalAlign=middle;resizable=0;points=[];autosize=1;strokeColor=none;fillColor=none;" vertex="1" parent="d8PbGDOuZuQa3EtD0t0Y-69">
          <mxGeometry x="7" y="19.5" width="106" height="228" as="geometry" />
        </mxCell>
        <mxCell id="d8PbGDOuZuQa3EtD0t0Y-70" value="Network" style="swimlane;whiteSpace=wrap;html=1;fontSize=10;" vertex="1" parent="ZYtv0OEyQL1Yf15tHMNI-6">
          <mxGeometry x="514" y="14" width="268" height="281" as="geometry" />
        </mxCell>
        <mxCell id="d8PbGDOuZuQa3EtD0t0Y-83" value="&lt;div&gt;&lt;span style=&quot;font-size: 10px;&quot;&gt;Internet Gateway&lt;/span&gt;&lt;/div&gt;&lt;div&gt;&lt;span style=&quot;font-size: 10px;&quot;&gt;- Public internet access point&lt;/span&gt;&lt;/div&gt;&lt;div&gt;&lt;span style=&quot;font-size: 10px;&quot;&gt;&lt;br&gt;&lt;/span&gt;&lt;/div&gt;&lt;div&gt;&lt;span style=&quot;font-size: 10px; background-color: transparent; color: light-dark(rgb(0, 0, 0), rgb(255, 255, 255));&quot;&gt;Security Perimeter&lt;/span&gt;&lt;/div&gt;&lt;div&gt;&lt;span style=&quot;font-size: 10px;&quot;&gt;- WAF, DDoS Protection, Load Balancer, SSL Termination&lt;/span&gt;&lt;/div&gt;&lt;div&gt;&lt;span style=&quot;font-size: 10px;&quot;&gt;&lt;br&gt;&lt;/span&gt;&lt;/div&gt;&lt;div&gt;&lt;span style=&quot;font-size: 10px;&quot;&gt;DMZ (Public Subnet)&lt;/span&gt;&lt;/div&gt;&lt;div&gt;&lt;span style=&quot;font-size: 10px;&quot;&gt;- API Gateway | Web Servers | Reverse Proxy&lt;/span&gt;&lt;/div&gt;&lt;div&gt;&lt;span style=&quot;font-size: 10px;&quot;&gt;&lt;br&gt;&lt;/span&gt;&lt;/div&gt;&lt;div&gt;&lt;div style=&quot;&quot;&gt;&lt;span style=&quot;font-size: 10px;&quot;&gt;Application Tier (Private)&lt;/span&gt;&lt;/div&gt;&lt;div style=&quot;&quot;&gt;&lt;span style=&quot;font-size: 10px;&quot;&gt;- Microservices | Business Logic | Processing Engines&lt;/span&gt;&lt;/div&gt;&lt;div style=&quot;&quot;&gt;&lt;span style=&quot;font-size: 10px;&quot;&gt;&lt;br&gt;&lt;/span&gt;&lt;/div&gt;&lt;div style=&quot;&quot;&gt;&lt;span style=&quot;font-size: 10px;&quot;&gt;Data Tier (Isolated)&lt;/span&gt;&lt;/div&gt;&lt;div style=&quot;&quot;&gt;&lt;span style=&quot;font-size: 10px;&quot;&gt;- Databases | Cache | Message Queues | File Storage&lt;/span&gt;&lt;/div&gt;&lt;div style=&quot;&quot;&gt;&lt;span style=&quot;font-size: 10px;&quot;&gt;&lt;br&gt;&lt;/span&gt;&lt;/div&gt;&lt;div style=&quot;&quot;&gt;&lt;span style=&quot;font-size: 10px;&quot;&gt;Security Services (HSM)&lt;/span&gt;&lt;/div&gt;&lt;div style=&quot;&quot;&gt;&lt;span style=&quot;font-size: 10px;&quot;&gt;- Key Management | Encryption | Tokenization | PKI&lt;/span&gt;&lt;/div&gt;&lt;/div&gt;" style="text;html=1;align=left;verticalAlign=middle;resizable=0;points=[];autosize=1;strokeColor=none;fillColor=none;" vertex="1" parent="d8PbGDOuZuQa3EtD0t0Y-70">
          <mxGeometry x="7" y="24" width="273" height="257" as="geometry" />
        </mxCell>
        <mxCell id="QB4suZPM75ruY3Jp13J7-1" value="" style="rounded=0;whiteSpace=wrap;html=1;" vertex="1" parent="1">
          <mxGeometry x="489" y="-217" width="120" height="60" as="geometry" />
        </mxCell>
        <mxCell id="QB4suZPM75ruY3Jp13J7-3" value="Text" style="text;html=1;align=center;verticalAlign=middle;whiteSpace=wrap;rounded=0;" vertex="1" parent="1">
          <mxGeometry x="519" y="-202" width="60" height="30" as="geometry" />
        </mxCell>
        <mxCell id="QB4suZPM75ruY3Jp13J7-4" value="&lt;div&gt;TOGAF 10-based payment system architecture for fintech scalability and PCI DSS compliance&lt;/div&gt;&lt;div&gt;&lt;br&gt;&lt;/div&gt;&lt;div&gt;Author: Syam Nair&lt;/div&gt;" style="text;html=1;align=left;verticalAlign=middle;whiteSpace=wrap;rounded=0;fontStyle=1" vertex="1" parent="1">
          <mxGeometry x="71" y="-385" width="572" height="30" as="geometry" />
        </mxCell>
      </root>
    </mxGraphModel>
  </diagram>
</mxfile>
